# xmcd
#
# Track frame offsets:
#	150
#	14215
#	29661
#	42034
#	60794
#	76315
#	87253
#	99898
#	111187
#	125953
#	138088
#	149825
#	163841
#	179127
#	193365
#	209465
#	226465
#	241437
#	254405
#	268211
#
# Disc length: 3772 seconds
#
# Revision: 0
# Processed by: cddbd v1.5.2PL0 Copyright (c) Steve Scherf et al.
# Submitted via: EasyCDDAExtractor 16.1.0.1
#
DISCID=340eba14
DTITLE=Cornelio Reyna - 20 Exitos
DYEAR=2000
DGENRE=Country
TTITLE0=Me Cai De La Nube
TTITLE1=Tu Traiccion
TTITLE2=Ni Por Mil Puñados De Oro
TTITLE3=Echame La Tierra Por Encima
TTITLE4=Por El Amor A Mi Madre
TTITLE5=Ya no LLores 
TTITLE6=Golondrina De Ojos Negros
TTITLE7=Si Tu Supieras
TTITLE8=Como Un Perro
TTITLE9=Tu Eres Mi Vida
TTITLE10=Te Vas Angel Mio
TTITLE11=El Retrato De Mi Madre
TTITLE12=No Tengo Dinero
TTITLE13=Cobardemente
TTITLE14=Sentencia 
TTITLE15=Con La Tinta De Mi Sangre
TTITLE16=Esta Sellado
TTITLE17=Te Perdi
TTITLE18=Amor Escondido
TTITLE19=Me Casite Del Cielo
EXTD=
EXTT0=
EXTT1=
EXTT2=
EXTT3=
EXTT4=
EXTT5=
EXTT6=
EXTT7=
EXTT8=
EXTT9=
EXTT10=
EXTT11=
EXTT12=
EXTT13=
EXTT14=
EXTT15=
EXTT16=
EXTT17=
EXTT18=
EXTT19=
PLAYORDER=
